<?xml version="1.0" standalone="no"?>
<!DOCTYPE svg PUBLIC "-//W3C//DTD SVG 20010904//EN"
 "http://www.w3.org/TR/2001/REC-SVG-20010904/DTD/svg10.dtd">
<svg version="1.0" xmlns="http://www.w3.org/2000/svg"
 width="602.000000pt" height="127.000000pt" viewBox="0 0 602.000000 127.000000"
 preserveAspectRatio="xMidYMid meet">

<g transform="translate(0.000000,127.000000) scale(0.100000,-0.100000)"
fill="#000000" stroke="none">
<path d="M735 1073 c-45 -11 -59 -47 -30 -77 12 -11 15 -40 15 -124 l0 -109
-49 -30 c-162 -101 -142 -347 34 -429 120 -57 255 -11 320 107 24 44 29 66 29
119 -1 96 -35 153 -131 219 l-33 22 0 103 c0 90 2 105 20 121 31 28 25 54 -15
71 -33 13 -118 17 -160 7z m166 -30 c6 -6 2 -16 -11 -28 -18 -16 -20 -30 -20
-141 l0 -122 43 -25 c83 -49 117 -108 117 -205 0 -206 -266 -297 -398 -136
-31 37 -52 99 -52 154 0 69 58 153 133 191 l37 19 0 120 0 120 32 0 c45 0 23
18 -27 22 -46 3 -55 28 -15 40 32 9 149 3 161 -9z"/>
<path d="M600 507 c0 -13 12 -47 26 -75 64 -129 251 -146 348 -32 41 49 43 75
9 104 -35 31 -56 32 -95 4 l-31 -21 -41 21 c-50 27 -61 27 -93 2 -14 -11 -31
-20 -38 -20 -7 0 -24 9 -38 20 -33 26 -47 25 -47 -3z"/>
<path d="M534 958 c-16 -12 -53 -44 -81 -72 -42 -40 -53 -57 -53 -82 0 -17 -7
-53 -15 -80 -18 -59 -19 -95 -3 -129 22 -49 101 -44 126 7 16 34 0 77 -48 131
l-32 37 27 0 c19 0 40 -15 75 -52 35 -38 49 -48 50 -35 0 10 -21 40 -46 67
-35 38 -54 50 -75 50 -47 0 -36 32 32 94 63 58 85 68 96 39 4 -11 -4 -25 -25
-43 -18 -15 -32 -32 -32 -38 0 -18 11 -15 37 10 l24 22 54 -59 c64 -71 75 -52
11 20 -30 35 -43 59 -43 79 0 26 -24 56 -44 56 -3 0 -19 -10 -35 -22z"/>
<path d="M1016 961 c-10 -11 -16 -30 -14 -44 2 -18 -10 -38 -45 -76 -26 -28
-45 -56 -41 -62 4 -7 27 11 58 46 l51 57 28 -22 c40 -32 46 -16 9 23 -33 34
-42 67 -18 67 19 0 101 -64 125 -99 28 -39 26 -51 -7 -51 -34 0 -139 -100
-127 -120 5 -9 22 4 54 40 36 40 51 51 70 49 24 -4 24 -4 -13 -48 -58 -69 -61
-128 -7 -151 46 -19 74 -10 94 32 18 37 18 40 -2 118 -12 43 -21 91 -21 104 0
19 -19 42 -77 91 -42 36 -81 65 -88 65 -7 0 -20 -9 -29 -19z"/>
<path d="M1684 937 c-61 -21 -101 -55 -129 -111 -44 -89 -29 -193 40 -261 46
-46 98 -65 177 -65 51 0 57 -3 105 -49 53 -52 122 -81 188 -81 38 0 132 27
140 40 4 6 -3 6 -20 0 -71 -27 -168 4 -236 77 -20 21 -57 68 -83 106 -30 42
-54 67 -66 67 -10 0 -39 -23 -63 -51 l-46 -52 -20 34 c-97 157 -38 368 96 343
57 -10 115 -75 136 -150 19 -67 22 -149 7 -188 -11 -30 -9 -31 31 -10 38 19
68 83 69 145 0 68 -43 147 -101 182 -56 34 -160 45 -225 24z m117 -394 l21
-33 -26 0 c-33 0 -73 19 -81 38 -3 8 2 23 11 34 15 15 20 16 36 6 10 -7 28
-28 39 -45z"/>
<path d="M4155 941 c-108 -28 -165 -102 -165 -215 0 -78 11 -110 53 -155 47
-49 100 -71 177 -71 63 0 66 -1 102 -40 59 -62 110 -84 198 -84 58 0 85 5 118
22 51 27 55 37 7 16 -106 -44 -205 9 -318 169 -26 37 -54 70 -63 74 -10 4 -34
-12 -68 -46 l-52 -52 -29 53 c-40 74 -48 194 -16 257 37 71 114 88 182 40 61
-43 108 -193 89 -289 -4 -25 -7 -47 -4 -49 2 -2 15 4 29 13 84 55 90 208 11
294 -49 55 -169 85 -251 63z m84 -378 c40 -48 39 -57 -5 -50 -58 10 -82 45
-52 75 18 18 24 15 57 -25z"/>
<path d="M3265 880 c-39 -19 -51 -28 -35 -27 l25 2 3 -171 2 -172 38 -9 c25
-6 51 -5 82 3 l45 12 -42 1 -43 1 0 135 0 135 35 0 c19 0 35 5 35 10 0 6 -16
10 -35 10 l-35 0 0 50 c0 28 -3 50 -7 50 -5 -1 -35 -14 -68 -30z"/>
<path d="M5581 886 c-33 -17 -40 -24 -27 -29 14 -6 16 -28 16 -176 l0 -170 35
-10 c26 -7 47 -6 78 4 l42 13 -37 1 -38 1 0 135 0 135 35 0 c19 0 35 5 35 10
0 6 -16 10 -35 10 l-35 0 0 50 c0 58 -5 60 -69 26z"/>
<path d="M560 803 c-42 -8 -42 -17 -1 -57 l39 -38 36 27 c31 24 34 30 24 44
-25 32 -37 35 -98 24z"/>
<path d="M963 788 l-22 -23 39 -32 39 -33 35 42 c20 23 33 45 28 50 -4 4 -28
11 -52 14 -39 5 -48 3 -67 -18z"/>
<path d="M2057 798 c6 -7 13 -63 15 -124 6 -116 15 -145 55 -163 37 -17 65
-13 119 14 27 14 50 25 52 25 1 0 2 -12 2 -26 0 -22 3 -25 23 -20 12 3 36 6
52 7 17 0 24 3 18 6 -10 3 -13 43 -13 149 l0 144 -57 0 c-54 0 -55 -1 -40 -18
14 -15 17 -40 17 -120 0 -96 -1 -102 -24 -117 -13 -9 -39 -18 -58 -21 -55 -9
-63 9 -63 153 l0 123 -54 0 c-41 0 -51 -3 -44 -12z"/>
<path d="M2568 800 c-96 -29 -145 -135 -103 -224 28 -58 64 -71 198 -71 93 0
116 3 112 13 -3 8 -5 71 -5 141 l0 128 -39 11 c-43 14 -123 14 -163 2z m93
-15 l30 -16 -3 -117 c-3 -115 -3 -117 -29 -126 -32 -11 -74 8 -103 47 -15 20
-21 47 -24 97 -4 66 -3 71 26 100 34 34 59 37 103 15z"/>
<path d="M2855 800 c-16 -4 -22 -8 -12 -9 15 -1 17 -15 17 -146 l0 -145 43 0
42 0 -3 123 -4 124 35 16 c42 20 83 22 94 5 4 -7 10 -69 13 -138 l5 -125 49
-3 c44 -3 48 -1 40 15 -4 10 -11 69 -14 131 -5 109 -6 115 -33 138 -36 31 -75
31 -137 -1 l-50 -25 0 25 c0 21 -4 25 -27 24 -16 -1 -41 -5 -58 -9z"/>
<path d="M3560 788 c-60 -31 -90 -77 -90 -140 0 -58 18 -98 57 -124 24 -16 47
-19 149 -19 l122 0 -9 23 c-5 13 -9 77 -9 142 l0 119 -37 10 c-63 18 -134 13
-183 -11z m118 -4 c21 -14 22 -22 22 -134 0 -118 0 -120 -24 -126 -34 -8 -76
14 -103 55 -26 38 -32 130 -12 175 20 43 77 58 117 30z"/>
<path d="M4513 793 c11 -14 16 -46 19 -130 3 -101 5 -115 26 -135 30 -31 104
-31 154 0 45 28 48 28 48 -4 0 -22 3 -25 23 -20 12 3 35 6 51 6 27 0 28 1 12
13 -17 12 -18 27 -14 150 l4 137 -54 0 c-48 0 -53 -2 -41 -16 14 -17 25 -167
16 -206 -4 -14 -21 -31 -42 -41 -86 -41 -105 -15 -105 145 l0 118 -57 0 c-53
0 -55 -1 -40 -17z"/>
<path d="M5015 799 c-43 -12 -93 -64 -105 -110 -21 -76 14 -141 92 -174 49
-20 94 -19 144 4 56 25 64 42 12 24 -24 -8 -56 -12 -74 -8 -45 8 -94 66 -94
110 l0 35 95 0 c85 0 95 2 105 21 16 29 -5 76 -41 94 -31 16 -87 18 -134 4z
m91 -24 c17 -17 24 -34 22 -53 -3 -26 -5 -27 -75 -30 l-71 -3 8 38 c10 41 41
73 72 73 10 0 30 -11 44 -25z"/>
<path d="M5289 787 c-74 -49 -37 -146 62 -162 62 -10 89 -29 89 -65 0 -17 -7
-33 -17 -39 -12 -7 -13 -11 -5 -11 25 0 72 57 72 88 0 45 -28 71 -105 96 -57
18 -72 28 -79 49 -8 21 -6 31 9 47 24 26 16 25 -26 -3z"/>
<path d="M5370 797 c19 -7 44 -26 55 -43 l21 -31 17 23 c9 13 17 26 17 29 0
12 -70 35 -107 34 l-38 0 35 -12z"/>
<path d="M5255 564 c-14 -22 -15 -28 -4 -35 23 -15 82 -29 119 -28 l35 0 -40
15 c-22 8 -52 28 -66 44 l-26 31 -18 -27z"/>
<path d="M2239 443 c-13 -16 -12 -17 4 -4 16 13 21 21 13 21 -2 0 -10 -8 -17
-17z"/>
<path d="M541 379 c-26 -75 51 -145 120 -108 29 15 14 30 -18 18 -22 -8 -32
-6 -52 9 -22 17 -26 27 -24 66 1 53 -10 60 -26 15z"/>
<path d="M1048 405 c-4 -4 -2 -18 4 -31 22 -48 -40 -112 -83 -86 -9 6 -22 7
-29 2 -18 -11 19 -30 58 -30 37 0 82 49 82 89 0 29 -21 66 -32 56z"/>
<path d="M580 347 c0 -20 7 -31 25 -39 39 -18 42 -1 7 35 l-32 32 0 -28z"/>
<path d="M995 330 c-26 -27 -27 -30 -8 -30 21 0 53 29 53 48 0 20 -15 14 -45
-18z"/>
</g>
</svg>
